<svg width="1400" height="900" viewBox="0 0 1400 900" fill="none" xmlns="http://www.w3.org/2000/svg">
  <defs>
    <linearGradient id="bg" x1="90" y1="60" x2="1280" y2="840" gradientUnits="userSpaceOnUse">
      <stop stop-color="#062E77"/>
      <stop offset="0.5" stop-color="#0758A8"/>
      <stop offset="1" stop-color="#0AA0D9"/>
    </linearGradient>
  </defs>
  <rect width="1400" height="900" fill="url(#bg)"/>
  <ellipse cx="300" cy="180" rx="280" ry="170" fill="#69EFD5" fill-opacity="0.27"/>
  <ellipse cx="1140" cy="130" rx="220" ry="150" fill="#FFFFFF" fill-opacity="0.2"/>

  <rect x="170" y="170" width="1060" height="560" rx="36" fill="#FFFFFF" fill-opacity="0.14" stroke="#FFFFFF" stroke-opacity="0.34"/>
  <rect x="220" y="230" width="660" height="200" rx="24" fill="#FFFFFF" fill-opacity="0.2"/>
  <rect x="910" y="230" width="270" height="200" rx="24" fill="#FFFFFF" fill-opacity="0.2"/>
  <rect x="220" y="460" width="420" height="220" rx="24" fill="#FFFFFF" fill-opacity="0.17"/>
  <rect x="670" y="460" width="510" height="220" rx="24" fill="#FFFFFF" fill-opacity="0.17"/>

  <g stroke="#EAF9FF" stroke-width="8" stroke-linecap="round" stroke-linejoin="round">
    <path d="M275 356L350 300L430 340L520 280L600 310L690 250L825 320"/>
    <circle cx="275" cy="356" r="8" fill="#EAF9FF"/>
    <circle cx="350" cy="300" r="8" fill="#EAF9FF"/>
    <circle cx="430" cy="340" r="8" fill="#EAF9FF"/>
    <circle cx="520" cy="280" r="8" fill="#EAF9FF"/>
    <circle cx="600" cy="310" r="8" fill="#EAF9FF"/>
    <circle cx="690" cy="250" r="8" fill="#EAF9FF"/>
    <circle cx="825" cy="320" r="8" fill="#EAF9FF"/>
  </g>

  <g fill="#EAF9FF" fill-opacity="0.86">
    <rect x="945" y="278" width="195" height="16" rx="8"/>
    <rect x="945" y="308" width="160" height="12" rx="6"/>
    <rect x="945" y="332" width="178" height="12" rx="6"/>

    <rect x="262" y="534" width="230" height="14" rx="7"/>
    <rect x="262" y="560" width="188" height="12" rx="6"/>
    <rect x="262" y="582" width="210" height="12" rx="6"/>

    <rect x="710" y="520" width="430" height="16" rx="8"/>
    <rect x="710" y="548" width="360" height="12" rx="6"/>
    <rect x="710" y="570" width="400" height="12" rx="6"/>
  </g>
</svg>
