<svg width="1400" height="900" viewBox="0 0 1400 900" fill="none" xmlns="http://www.w3.org/2000/svg">
  <defs>
    <linearGradient id="bg" x1="80" y1="40" x2="1290" y2="860" gradientUnits="userSpaceOnUse">
      <stop stop-color="#093B8B"/>
      <stop offset="0.48" stop-color="#0A5FB6"/>
      <stop offset="1" stop-color="#15A4DD"/>
    </linearGradient>
    <linearGradient id="card" x1="0" y1="0" x2="1" y2="1">
      <stop stop-color="#FFFFFF" stop-opacity="0.3"/>
      <stop offset="1" stop-color="#FFFFFF" stop-opacity="0.1"/>
    </linearGradient>
  </defs>
  <rect width="1400" height="900" fill="url(#bg)"/>
  <circle cx="220" cy="160" r="220" fill="#54E5D3" fill-opacity="0.28"/>
  <circle cx="1180" cy="120" r="180" fill="#FFFFFF" fill-opacity="0.2"/>

  <rect x="180" y="180" width="1040" height="540" rx="36" fill="url(#card)" stroke="#FFFFFF" stroke-opacity="0.35"/>

  <g>
    <rect x="230" y="240" width="220" height="180" rx="22" fill="#FFFFFF" fill-opacity="0.2"/>
    <rect x="470" y="240" width="220" height="180" rx="22" fill="#FFFFFF" fill-opacity="0.2"/>
    <rect x="710" y="240" width="220" height="180" rx="22" fill="#FFFFFF" fill-opacity="0.2"/>
    <rect x="950" y="240" width="220" height="180" rx="22" fill="#FFFFFF" fill-opacity="0.2"/>

    <rect x="230" y="450" width="220" height="210" rx="22" fill="#FFFFFF" fill-opacity="0.16"/>
    <rect x="470" y="450" width="220" height="210" rx="22" fill="#FFFFFF" fill-opacity="0.16"/>
    <rect x="710" y="450" width="220" height="210" rx="22" fill="#FFFFFF" fill-opacity="0.16"/>
    <rect x="950" y="450" width="220" height="210" rx="22" fill="#FFFFFF" fill-opacity="0.16"/>
  </g>

  <g stroke="#EAF9FF" stroke-width="8" stroke-linecap="round">
    <path d="M305 300L340 335L385 280"/>
    <circle cx="580" cy="305" r="28"/>
    <path d="M778 327H862M820 285V369"/>
    <path d="M995 296H1115M995 328H1115M995 360H1068"/>
  </g>

  <g fill="#EAF9FF" fill-opacity="0.86">
    <circle cx="280" cy="520" r="14"/>
    <rect x="306" y="512" width="110" height="14" rx="7"/>
    <circle cx="520" cy="520" r="14"/>
    <rect x="546" y="512" width="110" height="14" rx="7"/>
    <circle cx="760" cy="520" r="14"/>
    <rect x="786" y="512" width="110" height="14" rx="7"/>
    <circle cx="1000" cy="520" r="14"/>
    <rect x="1026" y="512" width="110" height="14" rx="7"/>
  </g>
</svg>
